HIERARCHY
ROOT joint_Root
{
	OFFSET 0.0 0.0 0.0
	CHANNELS 6 Xposition Yposition Zposition Zrotation Xrotation Yrotation 
	JOINT Hips
	{
		OFFSET -17.1583 93.1646 452.98
		CHANNELS 6 Xposition Yposition Zposition Zrotation Xrotation Yrotation 
		JOINT Spine
		{
			OFFSET 15.7357 0.0 0.0
			CHANNELS 6 Xposition Yposition Zposition Zrotation Xrotation Yrotation 
			JOINT Chest
			{
				OFFSET 8.98455 -0.406207 0.0
				CHANNELS 6 Xposition Yposition Zposition Zrotation Xrotation Yrotation 
				JOINT Neck
				{
					OFFSET 16.3773 0.0 0.0
					CHANNELS 6 Xposition Yposition Zposition Zrotation Xrotation Yrotation 
					JOINT Head
					{
						OFFSET 6.45672 0.0 0.0
						CHANNELS 6 Xposition Yposition Zposition Zrotation Xrotation Yrotation 
						End Site
						{
							OFFSET 0.0 0.0 0.0
						}
					}
				}
				JOINT Shoulder_L
				{
					OFFSET 12.9942 -0.242716 4.98039
					CHANNELS 6 Xposition Yposition Zposition Zrotation Xrotation Yrotation 
					JOINT UpperArm_L
					{
						OFFSET 5.34809 0.0 0.0
						CHANNELS 6 Xposition Yposition Zposition Zrotation Xrotation Yrotation 
						JOINT LowerArm_L
						{
							OFFSET 24.3286 1.87007e-05 0.0
							CHANNELS 6 Xposition Yposition Zposition Zrotation Xrotation Yrotation 
							JOINT Hand_L
							{
								OFFSET 22.2916 0.0 0.0
								CHANNELS 6 Xposition Yposition Zposition Zrotation Xrotation Yrotation 
								End Site
								{
									OFFSET 0.0 0.0 0.0
								}
							}
						}
					}
				}
				JOINT Shoulder_R
				{
					OFFSET 12.9945 -0.242716 -4.98039
					CHANNELS 6 Xposition Yposition Zposition Zrotation Xrotation Yrotation 
					JOINT UpperArm_R
					{
						OFFSET -5.34813 0.0 0.0
						CHANNELS 6 Xposition Yposition Zposition Zrotation Xrotation Yrotation 
						JOINT LowerArm_R
						{
							OFFSET -24.3289 0.000322201 0.0
							CHANNELS 6 Xposition Yposition Zposition Zrotation Xrotation Yrotation 
							JOINT Hand_R
							{
								OFFSET -22.2915 -0.000108084 0.0
								CHANNELS 6 Xposition Yposition Zposition Zrotation Xrotation Yrotation 
								End Site
								{
									OFFSET 0.0 0.0 0.0
								}
							}
						}
					}
				}
			}
		}
		JOINT UpperLeg_L
		{
			OFFSET -2.19248 -6.46944 0.0
			CHANNELS 6 Xposition Yposition Zposition Zrotation Xrotation Yrotation 
			JOINT LowerLeg_L
			{
				OFFSET 39.0811 0.0 -1.23785e-05
				CHANNELS 6 Xposition Yposition Zposition Zrotation Xrotation Yrotation 
				JOINT Foot_L
				{
					OFFSET 40.9854 0.0 -1.26872e-05
					CHANNELS 6 Xposition Yposition Zposition Zrotation Xrotation Yrotation 
					JOINT Toes_L
					{
						OFFSET 11.7543 0.0 0.0
						CHANNELS 6 Xposition Yposition Zposition Zrotation Xrotation Yrotation 
						End Site
						{
							OFFSET 0.0 0.0 0.0
						}
					}
				}
			}
		}
		JOINT UpperLeg_R
		{
			OFFSET -2.19251 6.46944 0.0
			CHANNELS 6 Xposition Yposition Zposition Zrotation Xrotation Yrotation 
			JOINT LowerLeg_R
			{
				OFFSET -39.0811 -0.00228153 -0.0401928
				CHANNELS 6 Xposition Yposition Zposition Zrotation Xrotation Yrotation 
				JOINT Foot_R
				{
					OFFSET -40.9854 0.0 0.0
					CHANNELS 6 Xposition Yposition Zposition Zrotation Xrotation Yrotation 
					JOINT Toes_R
					{
						OFFSET -11.7543 0.0 0.0
						CHANNELS 6 Xposition Yposition Zposition Zrotation Xrotation Yrotation 
						End Site
						{
							OFFSET 0.0 0.0 0.0
						}
					}
				}
			}
		}
	}
}
MOTION
Frames:	7
Frame Time:	0.0333333
0.000000 0.000000 0.000000 0.000000 0.000000 -0.000000 -202.553000 91.571300 258.961000 -35.977300 89.282700 124.306000 15.735700 0.000005 -0.000001 114.900000 87.246300 -114.040000 8.984550 -0.406207 -0.000000 -2.787750 2.238730 1.776050 16.377300 -0.000001 -0.000001 -2.746090 1.059810 0.451747 6.456720 -0.000001 -0.000000 2.267140 1.147120 -1.167700 12.994200 -0.242716 4.980390 -92.753000 7.320280 -69.323300 5.348090 -0.000007 -0.000001 -54.878000 -11.344000 13.075900 24.328600 0.000019 0.000005 3.839240 22.333800 -10.025100 22.291600 -0.000001 0.000005 -6.996170 5.080790 5.540900 12.994500 -0.242716 -4.980390 89.567000 1.291720 -71.469700 -5.348130 -0.000001 -0.000004 -66.414200 20.703000 -14.217200 -24.328900 0.000322 -0.000009 1.818930 2.572360 -35.302800 -22.291500 -0.000108 -0.000004 2.736040 5.329400 -0.768119 -2.192480 -6.469440 -0.000000 -175.313000 -0.277449 -24.953200 39.081100 -0.000007 -0.000012 0.213443 -0.118441 60.972900 40.985400 -0.000006 -0.000013 -9.781970 8.418980 -46.956600 11.754300 -0.000000 0.000003 0.001965 0.045387 -14.735700 -2.192510 6.469440 -0.000001 -177.068000 4.096730 177.827000 -39.081100 -0.002282 -0.040193 -0.012213 0.035944 23.364100 -40.985400 0.000008 0.000006 -5.435690 -3.772490 -74.060400 -11.754300 -0.000006 -0.000006 -0.000834 0.180689 -9.243870
0.000000 0.000000 0.000000 0.000000 0.000000 -0.000000 -199.702000 92.462500 258.603000 111.116000 88.963100 -23.632100 15.735700 0.000005 -0.000001 127.232000 87.051100 -126.892000 8.984550 -0.406207 -0.000000 -3.083390 3.534690 0.774946 16.377300 -0.000001 -0.000001 -2.628400 1.318680 0.196358 6.456720 -0.000001 -0.000000 2.265530 0.912565 -1.101280 12.994200 -0.242716 4.980390 -92.735800 6.899490 -68.307700 5.348090 -0.000007 -0.000001 -50.239800 -14.221600 16.079800 24.328600 0.000019 0.000005 3.458960 15.942700 -12.416600 22.291600 -0.000001 0.000005 -2.766790 5.015750 6.941460 12.994500 -0.242716 -4.980390 89.832500 0.511238 -71.869800 -5.348130 -0.000001 -0.000004 -64.062700 21.510300 -17.605400 -24.328900 0.000322 -0.000009 1.746700 2.284200 -37.437800 -22.291500 -0.000108 -0.000004 2.254290 5.329930 -0.782783 -2.192480 -6.469440 -0.000000 -176.537000 0.443005 -27.474100 39.081100 -0.000007 -0.000012 0.146193 -0.110343 52.954400 40.985400 -0.000006 -0.000013 -8.312380 8.401220 -51.961100 11.754300 -0.000000 0.000003 0.001611 0.034038 -15.196000 -2.192510 6.469440 -0.000001 -178.983000 5.938410 -178.875000 -39.081100 -0.002282 -0.040193 -0.008054 0.034451 18.277900 -40.985400 0.000008 0.000006 -5.217880 -1.201680 -70.053400 -11.754300 -0.000006 -0.000006 0.000946 0.149845 -10.496300
0.000000 0.000000 0.000000 0.000000 0.000000 -0.000000 -196.894000 92.884000 258.271000 115.691000 88.225900 -29.274600 15.735700 0.000005 -0.000001 133.447000 87.064000 -133.293000 8.984550 -0.406207 -0.000000 -3.512530 4.020760 0.431543 16.377300 -0.000001 -0.000001 -2.663320 1.783060 -0.344938 6.456720 -0.000001 -0.000000 2.294260 0.952367 -1.327040 12.994200 -0.242716 4.980390 -92.595400 6.369750 -67.775800 5.348090 -0.000007 -0.000001 -46.458400 -17.454200 18.864100 24.328600 0.000019 0.000005 3.424830 13.840900 -14.045900 22.291600 -0.000001 0.000005 2.659750 4.982760 7.678670 12.994500 -0.242716 -4.980390 90.017800 -0.055422 -72.194300 -5.348130 -0.000001 -0.000004 -60.903100 21.890100 -21.270900 -24.328900 0.000322 -0.000009 1.981690 2.424910 -39.289800 -22.291500 -0.000108 -0.000004 2.075400 5.327970 -0.726466 -2.192480 -6.469440 -0.000000 -176.722000 1.308130 -29.029900 39.081100 -0.000007 -0.000012 0.097589 -0.108923 41.857900 40.985400 -0.000006 -0.000013 -7.672650 8.859870 -53.572100 11.754300 -0.000000 0.000003 0.001810 0.040076 -14.951100 -2.192510 6.469440 -0.000001 179.395000 9.538020 -176.037000 -39.081100 -0.002282 -0.040193 -0.004855 0.033120 13.885200 -40.985400 0.000008 0.000006 -5.134610 2.633490 -66.783000 -11.754300 -0.000006 -0.000006 0.001947 0.122966 -11.586700
0.000000 0.000000 0.000000 0.000000 0.000000 -0.000000 -193.973000 92.724700 257.973000 108.190000 87.702600 -22.540400 15.735700 0.000005 -0.000001 137.728000 87.003800 -137.534000 8.984550 -0.406207 -0.000000 -3.748190 4.411940 0.532682 16.377300 -0.000001 -0.000001 -2.804070 2.182770 -0.963519 6.456720 -0.000001 -0.000000 2.263320 1.184600 -1.614220 12.994200 -0.242716 4.980390 -92.315400 5.687990 -67.806900 5.348090 -0.000007 -0.000001 -43.978600 -19.390500 21.074400 24.328600 0.000019 0.000005 3.142920 12.417600 -14.323800 22.291600 -0.000001 0.000005 9.468570 4.943540 8.480020 12.994500 -0.242716 -4.980390 90.127300 -0.399459 -72.320100 -5.348130 -0.000001 -0.000004 -57.782500 21.441800 -24.541800 -24.328900 0.000322 -0.000009 2.411960 2.762920 -41.159400 -22.291500 -0.000108 -0.000004 2.666110 5.317540 -0.425163 -2.192480 -6.469440 -0.000000 -176.537000 0.702157 -28.702900 39.081100 -0.000007 -0.000012 0.061390 -0.113126 28.487300 40.985400 -0.000006 -0.000013 -7.621150 10.628200 -54.920200 11.754300 -0.000000 0.000003 0.002040 0.048240 -14.620000 -2.192510 6.469440 -0.000001 178.482000 10.971500 -173.612000 -39.081100 -0.002282 -0.040193 -0.002658 0.030031 11.288000 -40.985400 0.000008 0.000006 -5.050730 4.820810 -65.195500 -11.754300 -0.000006 -0.000006 0.002489 0.083874 -13.171700
0.000000 0.000000 0.000000 0.000000 0.000000 -0.000000 -190.684000 91.820500 257.753000 91.779900 86.972800 -6.048750 15.735700 0.000005 -0.000001 137.376000 86.752100 -136.934000 8.984550 -0.406207 -0.000000 -3.390900 4.734240 1.024840 16.377300 -0.000001 -0.000001 -3.193600 2.766880 -1.418140 6.456720 -0.000001 -0.000000 2.165220 1.613750 -1.876020 12.994200 -0.242716 4.980390 -92.130200 5.285920 -68.013600 5.348090 -0.000007 -0.000001 -41.914700 -20.810700 22.316200 24.328600 0.000019 0.000005 2.574650 11.726400 -12.474600 22.291600 -0.000001 0.000005 14.697100 4.894060 9.480120 12.994500 -0.242716 -4.980390 90.123100 -0.392359 -72.576100 -5.348130 -0.000001 -0.000004 -55.881300 19.667500 -26.819200 -24.328900 0.000322 -0.000009 2.646340 2.843850 -42.983800 -22.291500 -0.000108 -0.000004 3.608200 5.315490 -0.366039 -2.192480 -6.469440 -0.000000 -175.877000 -0.575917 -27.556100 39.081100 -0.000007 -0.000012 0.033297 -0.108123 17.116600 40.985400 -0.000006 -0.000013 -8.744660 12.260500 -56.795200 11.754300 -0.000000 0.000003 0.002097 0.050602 -14.524200 -2.192510 6.469440 -0.000001 178.288000 10.356800 -172.108000 -39.081100 -0.002282 -0.040193 -0.012858 0.071077 12.833200 -40.985400 0.000008 0.000006 -5.226070 5.230730 -66.320000 -11.754300 -0.000006 -0.000006 0.001966 0.045415 -14.731000
0.000000 0.000000 0.000000 0.000000 0.000000 -0.000000 -187.104000 90.666800 257.482000 82.382000 85.947700 3.493960 15.735700 0.000005 -0.000001 135.834000 86.523800 -135.155000 8.984550 -0.406207 -0.000000 -2.955770 4.921590 1.486880 16.377300 -0.000001 -0.000001 -3.637540 3.382060 -1.597730 6.456720 -0.000001 -0.000000 1.575070 2.321980 -2.097630 12.994200 -0.242716 4.980390 -92.353400 5.918480 -68.269000 5.348090 -0.000007 -0.000001 -39.521000 -21.839300 22.607100 24.328600 0.000019 0.000005 1.728270 11.099500 -8.903690 22.291600 -0.000001 0.000005 17.383700 4.805600 11.201600 12.994500 -0.242716 -4.980390 89.952100 0.154702 -72.795900 -5.348130 -0.000001 -0.000004 -55.832700 16.876700 -27.703900 -24.328900 0.000322 -0.000009 1.897420 1.932950 -44.512400 -22.291500 -0.000108 -0.000004 5.819670 5.338520 -1.018560 -2.192480 -6.469440 -0.000000 -175.523000 -1.805740 -27.519300 39.081100 -0.000007 -0.000012 0.018750 -0.097476 10.888300 40.985400 -0.000006 -0.000013 -8.500050 10.994600 -57.774900 11.754300 -0.000000 0.000003 0.002230 0.056821 -14.272000 -2.192510 6.469440 -0.000001 178.219000 8.983760 -171.254000 -39.081100 -0.002282 -0.040193 -0.026497 0.103802 16.031100 -40.985400 0.000008 0.000006 -5.157180 4.862860 -68.058100 -11.754300 -0.000006 -0.000006 -0.000655 -0.010381 -16.995500
0.000000 0.000000 0.000000 0.000000 0.000000 -0.000000 -182.996000 89.565100 257.041000 82.473000 85.141900 3.042690 15.735700 0.000005 -0.000001 134.973000 86.637600 -134.274000 8.984550 -0.406207 -0.000000 -3.041410 4.685120 1.522580 16.377300 -0.000001 -0.000001 -3.963690 3.903360 -1.328070 6.456720 -0.000001 -0.000000 0.842492 3.422150 -2.213810 12.994200 -0.242716 4.980390 -92.766900 7.088140 -68.611200 5.348090 -0.000007 -0.000001 -37.949600 -21.815400 22.268800 24.328600 0.000019 0.000005 0.759482 9.639860 -4.520020 22.291600 -0.000001 0.000005 19.209700 4.664600 13.771100 12.994500 -0.242716 -4.980390 89.774500 0.733620 -72.915300 -5.348130 -0.000001 -0.000004 -59.495300 12.898500 -26.293200 -24.328900 0.000322 -0.000009 -1.754520 -1.753340 -45.023700 -22.291500 -0.000108 -0.000004 8.938440 5.430200 -3.896860 -2.192480 -6.469440 -0.000000 -176.640000 -3.088860 -30.138600 39.081100 -0.000007 -0.000012 0.018395 -0.076605 13.503200 40.985400 -0.000006 -0.000013 -5.197890 8.409140 -61.894500 11.754300 -0.000000 0.000003 0.002137 0.052347 -14.453400 -2.192510 6.469440 -0.000001 177.395000 8.159100 -170.766000 -39.081100 -0.002282 -0.040193 -0.034946 0.109122 19.325600 -40.985400 0.000008 0.000006 -5.346920 4.867550 -68.878800 -11.754300 -0.000006 -0.000006 -0.008363 -0.090967 -20.277700
